<svg viewBox="0 0 1024 1024" version="1.1" xmlns="http://www.w3.org/2000/svg" width="200" height="200">
    <path d="M320 64c0-35.4 28.6-64 64-64h64c35.4 0 64 28.6 64 64 35.4 0 64 28.6 64 64v448c0 35.4-28.6 64-64 64 0 35.4-28.6 64-64 64h-64c-35.4 0-64-28.6-64-64-35.4 0-64-28.6-64-64V128c0-35.4 28.6-64 64-64zM64 896h576c141.4 0 256-114.6 256-256s-114.6-256-256-256v-128c212 0 384 172 384 384 0 98.4-37 188-97.8 256H960c35.4 0 64 28.6 64 64s-28.6 64-64 64H64c-35.4 0-64-28.6-64-64s28.6-64 64-64z m160-128h384c17.6 0 32 14.4 32 32s-14.4 32-32 32H224c-17.6 0-32-14.4-32-32s14.4-32 32-32z"
          fill="rgb(41,98,255)">
    </path>
</svg>