<svg viewBox="0 0 1024 1024" version="1.1" xmlns="http://www.w3.org/2000/svg" width="200" height="200">
    <path d="M854.049102 454.033384A192.887397 192.887397 0 0 0 687.782555 301.475437a151.420304 151.420304 0 1 0-45.107551 0 191.351579 191.351579 0 0 0-136.517179 82.422246 259.667051 259.667051 0 0 0-162.512325-79.635021 151.989126 151.989126 0 1 0-52.047175 0 262.056101 262.056101 0 0 0-52.786642 10.864492A268.426903 268.426903 0 0 0 56.902542 573.144622v183.843134a16.438944 16.438944 0 0 0 16.32518 16.438944h87.882933v221.840416a13.651718 13.651718 0 0 0 13.594836 13.765482h285.377786a13.651718 13.651718 0 0 0 7.565327-2.332169 322.578717 322.578717 0 0 1 400.450391-497.036295z m-136.119004 71.045815A249.428262 249.428262 0 1 0 967.017068 774.507461a250.281494 250.281494 0 0 0-249.143852-249.428262z m108.986215 293.056877H705.359142a25.8245 25.8245 0 0 1-18.657348-7.792856 28.441079 28.441079 0 0 1-7.792856-18.714229V670.071819a26.507086 26.507086 0 1 1 52.957289 0v95.050086h94.993204a26.507086 26.507086 0 0 1 0 53.014171z m0 0"
          fill="rgb(29, 86, 126)">
    </path>
</svg>