<svg viewBox="0 0 1024 1024" version="1.1" xmlns="http://www.w3.org/2000/svg" width="200" height="200">
<path d="M410.51 482.55H227.57c-38.55 0-69.91-31.36-69.91-69.91V229.7c0-38.55 31.36-69.91 69.91-69.91h182.95c38.55 0 69.91 31.36 69.91 69.91v182.95c0 38.54-31.37 69.9-69.92 69.9zM227.57 223.78c-3.26 0-5.91 2.65-5.91 5.91v182.95c0 3.26 2.65 5.91 5.91 5.91h182.95c3.26 0 5.91-2.65 5.91-5.91V229.7c0-3.26-2.65-5.91-5.91-5.91H227.57zM798.08 482.55H615.14c-38.55 0-69.91-31.36-69.91-69.91V229.7c0-38.55 31.36-69.91 69.91-69.91h182.95c38.55 0 69.91 31.36 69.91 69.91v182.95c0 38.54-31.37 69.9-69.92 69.9zM615.14 223.78c-3.26 0-5.91 2.65-5.91 5.91v182.95c0 3.26 2.65 5.91 5.91 5.91h182.95c3.26 0 5.91-2.65 5.91-5.91V229.7c0-3.26-2.65-5.91-5.91-5.91H615.14zM410.51 879.97H227.57c-38.55 0-69.91-31.36-69.91-69.91V627.12c0-38.55 31.36-69.91 69.91-69.91h182.95c38.55 0 69.91 31.36 69.91 69.91v182.95c0 38.54-31.37 69.9-69.92 69.9zM227.57 621.2c-3.26 0-5.91 2.65-5.91 5.91v182.95c0 3.26 2.65 5.91 5.91 5.91h182.95c3.26 0 5.91-2.65 5.91-5.91V627.12c0-3.26-2.65-5.91-5.91-5.91H227.57zM798.08 879.97H615.14c-38.55 0-69.91-31.36-69.91-69.91V627.12c0-38.55 31.36-69.91 69.91-69.91h182.95c38.55 0 69.91 31.36 69.91 69.91v182.95c0 38.54-31.37 69.9-69.92 69.9zM615.14 621.2c-3.26 0-5.91 2.65-5.91 5.91v182.95c0 3.26 2.65 5.91 5.91 5.91h182.95c3.26 0 5.91-2.65 5.91-5.91V627.12c0-3.26-2.65-5.91-5.91-5.91H615.14z" fill="#ffffff">
</path>
</svg>