<svg xmlns="http://www.w3.org/2000/svg" width="8.009765625" height="4.80999755859375" viewBox="0 0 8.009765625 4.80999755859375" fill="none">
    <path d="M0.234229 0.24419C0.390429 0.0880368 0.578962 0.0099608 0.799829 0.0099608C1.0207 0.0099608 1.20923 0.0880368 1.36543 0.24419L3.99983 2.87859L6.63423 0.24419C6.78959 0.0833376 6.97908 0.0019408 7.2027 0C7.42633 -0.0019408 7.6172 0.0761552 7.77533 0.234286C7.93346 0.392416 8.01156 0.583292 8.00962 0.806915C8.00768 1.03054 7.92628 1.22003 7.76543 1.37539L4.56543 4.57539C4.40923 4.73154 4.2207 4.80962 3.99983 4.80962C3.77896 4.80962 3.59043 4.73154 3.43423 4.57539L0.23423 1.37539C0.0780768 1.21919 0 1.03066 0 0.80979C0 0.588924 0.078076 0.40039 0.234229 0.24419Z"   fill="#FFFFFF" >
    </path>
</svg>
