<svg class="icon" viewBox="0 0 1024 1024" version="1.1" xmlns="http://www.w3.org/2000/svg" width="200"
     height="200">
    <path d="M510.22 509.36m-449.12 0a449.12 449.12 0 1 0 898.24 0 449.12 449.12 0 1 0-898.24 0Z" fill="#ffffff">
    </path>
    <path d="M594.65 329.17H428.89v33.12h165.76v-33.12z m-90.72 132.61h-1.01l-2.86 0.23c-11.03 1.5-19.76 10.23-21.25 21.25l-0.23 3.37-0.02 57.96-57.96 0.02c-13.73 0-24.85 11.13-24.85 24.85 0 12.58 9.35 22.98 21.48 24.63l3.37 0.23h57.96l0.02 57.99c0 13.73 11.13 24.85 24.85 24.85 12.58 0 22.98-9.35 24.63-21.48l0.23-3.37v-57.99h57.99c13.73 0 24.85-11.13 24.85-24.85 0-12.58-9.35-22.98-21.48-24.63l-3.37-0.23-57.99-0.02v-57.96c-0.01-13.56-10.86-24.58-24.36-24.85z m90.72-198.92c36.62 0 66.31 29.69 66.31 66.31v33.12l66.31 0.03c36.62 0 66.31 29.69 66.31 66.31v256.18c0 36.62-29.69 66.31-66.31 66.31H296.28c-36.62 0-66.31-29.69-66.31-66.31V428.63c0-36.62 29.69-66.31 66.31-66.31l66.31-0.03v-33.12c0-34.95 27.05-63.59 61.36-66.12l4.95-0.18h165.75z"
          fill="#13227a">
    </path>
</svg>