<svg viewBox="0 0 1024 1024" xmlns="http://www.w3.org/2000/svg" width="200" height="200">
<path d="M843.264 873.408v-187.904h120.512v248.128c0 33.28-27.008 60.224-60.224 60.224H60.16A60.224 60.224 0 0 1 0 933.76V150.528c0-33.28 26.944-60.224 60.224-60.224H256v120.448H120.448v662.592h722.816zM240.96 632.448c0-296.96 249.344-398.72 421.632-417.984v-63.872a60.224 60.224 0 0 1 37.312-55.424 60.224 60.224 0 0 1 65.664 12.672l180.736 180.672a60.224 60.224 0 0 1 0 85.568l-180.736 180.672a60.224 60.224 0 0 1-65.664 12.672 60.224 60.224 0 0 1-37.312-55.424v-63.872c-74.112-3.584-190.336 5.44-250.56 60.288a153.6 153.6 0 0 0-50.56 124.032H240.896z" fill="rgb(212, 110, 64)">
</path>
</svg>