<svg viewBox="0 0 1024 1024" version="1.1" xmlns="http://www.w3.org/2000/svg" width="200" height="200">
    <path d="M855.527405 550.936745l-23.289268 46.599941a130.959321 130.959321 0 0 1 40.884652 94.976546c0 65.650905-48.483632 119.849826-111.373218 129.696392l-1.88369 37.887872a85.065764 85.065764 0 0 1 53.770809 78.922363 85.108575 85.108575 0 0 1-84.958735 85.001547 85.108575 85.108575 0 0 1-85.022953-85.001547c0-40.049835 27.955684-73.528158 65.329822-82.475689l1.798068-36.175425a132.543334 132.543334 0 0 1-33.349889-13.335675l-45.037334 38.851122c4.473766 10.296083 7.021029 21.662444 7.021029 33.585351a85.087169 85.087169 0 0 1-84.980141 84.980141c-46.856808 0-85.001547-38.080522-85.001547-84.980141s38.101927-84.980141 85.001547-84.980141c16.375267 0 31.50901 4.880472 44.437978 12.907563l39.343451-33.949246c-17.573979-22.411639-28.55504-50.260295-28.55504-80.87027 0-17.338517 3.553326-33.778001 9.653915-48.911744l-107.220536-105.807768A189.268113 189.268113 0 0 1 414.208621 565.107237a189.995903 189.995903 0 0 1-71.366194-13.89222l-37.117271 54.070488c6.657134 12.094151 10.7456 25.79372 10.745599 40.584975a85.044358 85.044358 0 0 1-84.958735 84.958735 85.065764 85.065764 0 0 1-84.958736-84.958735 85.087169 85.087169 0 0 1 84.958736-85.022953c3.810193 0 7.449141 0.642167 11.152305 1.155901l36.325265-53.021614a190.63807 190.63807 0 0 1-55.975584-135.069192c0-15.326393 2.012124-30.139053 5.437016-44.416573l-27.270705-16.118399a84.295163 84.295163 0 0 1-46.107613 13.806597c-46.835403 0-85.001547-38.123333-85.001547-84.980141s38.166144-84.980141 85.001547-84.980142 84.958736 38.101927 84.958735 84.980142c0 1.712446-0.428112 3.275053-0.492328 4.966093l21.576822 12.736319c34.933902-46.749781 90.50278-77.188511 153.135499-77.188511 13.292863 0 26.32886 1.391363 38.872528 4.002843l19.821564-47.070865a84.01689 84.01689 0 0 1-20.485137-54.627033A85.172792 85.172792 0 0 1 537.504745 0a85.087169 85.087169 0 0 1 84.93733 85.022952c0 44.801873-35.019524 81.21276-78.943768 84.337974l-20.078432 47.734438a193.228145 193.228145 0 0 1 37.010243 33.756595l104.951545-46.835403c2.22618-44.86609 39.129395-80.763243 84.573435-80.763243 46.835403 0 84.915925 38.101927 84.915925 84.958736s-38.037711 85.001547-84.915925 85.001547c-20.271082 0-38.744095-7.449141-53.299887-19.350642l-99.450311 44.395167c5.394205 17.595384 8.32677 36.282453 8.326769 55.675906a189.653414 189.653414 0 0 1-22.732723 90.245914l108.205193 106.835235a130.788076 130.788076 0 0 1 50.474351-10.167649c16.824784 0 32.793344 3.424892 47.648815 9.225804l20.870437-41.698064a84.680463 84.680463 0 0 1-26.007776-60.98449 85.12998 85.12998 0 0 1 85.065764-84.980141 85.022952 85.022952 0 0 1 84.915924 84.980141c0 46.878214-38.059116 84.980141-84.915924 84.980142a94.826707 94.826707 0 0 1-13.528325-1.434174z"
          fill="#ffffff">
    </path>
</svg>