<svg viewBox="0 0 1024 1024" version="1.1" xmlns="http://www.w3.org/2000/svg" width="200" height="200">
    <path d="M420.589714 740.388571v77.531429h77.915429v-77.531429h39.771428v196.955429h-39.771428v-86.125714h-77.915429v86.125714h-39.771428v-196.937143h39.771428z m237.659429 0l5.046857 0.018286c13.074286 0.128 23.003429 0.786286 29.805714 1.938286 7.68 1.28 14.518857 4.004571 20.571429 8.118857 6.034286 4.114286 11.081143 9.6 15.104 16.457143 4.022857 6.857143 6.052571 14.537143 6.052571 23.04 0 9.234286-2.486857 17.700571-7.460571 25.398857-4.973714 7.698286-11.702857 13.476571-20.205714 17.334857 11.995429 3.474286 21.211429 9.435429 27.666285 17.865143 6.454857 8.411429 9.673143 18.304 9.673143 29.696 0 8.96-2.084571 17.664-6.253714 26.130286a52.644571 52.644571 0 0 1-17.060572 20.278857c-7.204571 5.065143-16.091429 8.173714-26.660571 9.325714-6.637714 0.731429-22.619429 1.170286-47.963429 1.353143h-67.035428v-196.937143h78.72z m142.811428 0l49.846858 145.773715 48.237714-145.773715h42.185143L870.765714 937.344H828.342857l-70.4-196.937143h43.117714z m-149.668571 111.104h-32.109714v52.662858h36.827428c14.317714 0 23.405714-0.402286 27.264-1.206858 5.906286-1.078857 10.733714-3.693714 14.445715-7.862857 3.712-4.150857 5.577143-9.728 5.577142-16.713143 0-5.924571-1.444571-10.934857-4.297142-15.049142a24.301714 24.301714 0 0 0-12.434286-8.996572c-5.412571-1.883429-17.188571-2.834286-35.273143-2.834286z m-5.613714-78.317714h-26.496v45.531429h30.153143c9.179429-0.018286 15.981714-0.146286 20.425142-0.347429l3.2-0.182857 1.170286-0.128c6.820571-0.804571 12.16-3.163429 16.054857-7.058286 3.913143-3.894857 5.851429-9.014857 5.851429-15.378285 0-6.089143-1.682286-11.044571-5.028572-14.848-3.364571-3.803429-8.356571-6.107429-14.994285-6.912-3.657143-0.420571-13.787429-0.64-30.354286-0.676572zM322.925714 73.142857c109.421714 0 227.547429 60.928 227.547429 160.402286 0 16.164571-4.973714 31.085714-8.704 45.988571-3.730286 13.677714-7.460571 26.112-7.460572 38.546286 0 26.112 4.973714 52.224 14.921143 77.092571l2.486857 4.973715c0 1.243429 31.085714 36.059429 64.658286 54.710857 0 0 1.243429 0 2.486857 1.243428l-0.530285-0.420571c-0.676571-0.438857-0.512 0.420571 0.530285 0.420571 3.730286 3.730286 7.460571 8.704 6.217143 14.921143-1.243429 9.947429-8.704 16.164571-18.651428 14.921143-2.486857 0-4.973714 0-6.217143-1.243428-34.816-18.651429-57.197714-42.276571-63.414857-50.980572-21.138286 38.546286-53.467429 74.605714-85.796572 94.500572-29.842286 19.894857-52.224 27.355429-70.875428 33.572571-17.408 6.217143-31.085714 11.190857-49.737143 22.381714-160.384 101.942857-213.851429 123.099429-234.989715 123.099429-7.460571 0-11.190857-3.748571-13.677714-6.217143-2.486857-2.505143-12.434286-12.434286-4.973714-29.860571 21.138286-52.205714 13.677714-108.16 6.217143-172.818286-8.704-67.145143-17.408-142.994286 1.243428-232.502857C112.804571 144.018286 199.844571 73.142857 322.925714 73.142857z m218.843429 28.598857l37.302857 2.486857c1.243429 0 123.081143 8.704 176.548571 8.704 42.276571 0 144.237714 4.973714 176.566858 43.52 8.704 11.190857 11.190857 23.625143 9.947428 38.546286-4.973714 19.894857-28.598857 27.355429-85.796571 46.006857-13.677714 4.955429-28.598857 8.704-46.006857 14.921143-13.952 4.297143-38.125714 25.270857-62.866286 47.725714l-7.826286 7.131429-3.913143 3.565714c-2.230857 2.011429-4.48 3.986286-6.729143 5.979429l-13.531428 11.958857c-27.081143 23.789714-54.326857 46.482286-79.195429 60.397714-4.992 2.486857-8.704 3.730286-13.677714 3.730286s-9.947429-2.486857-14.921143-4.973714c-22.381714-16.164571-19.894857-75.849143-13.677714-123.081143 1.243429-8.704 2.486857-14.921143 3.730286-19.894857 1.243429-6.217143 2.486857-11.190857 2.486857-17.408 0-14.921143-3.730286-29.842286-8.704-42.276572v-1.243428c-9.947429-27.355429-28.598857-54.710857-28.598857-54.710857l-21.138286-31.085715z m-73.362286 54.710857c-1.243429-9.947429-100.717714-57.197714-193.974857-38.546285-93.257143 18.651429-144.219429 95.744-142.994286 104.448 1.261714 9.947429 63.433143-46.006857 156.672-64.658286 93.257143-18.651429 182.784 7.460571 180.297143-1.243429z"
          fill="rgb(29, 86, 126)">

    </path>
</svg>