<svg viewBox="0 0 1024 1024" version="1.1" xmlns="http://www.w3.org/2000/svg" width="200" height="200">
    <path d="M664.557714 737.024c24.100571 0 43.666286 7.131429 58.715429 21.376 8.96 8.411429 15.670857 20.498286 20.150857 36.260571l-39.350857 9.417143-1.005714-3.730285a40.740571 40.740571 0 0 0-13.586286-20.461715c-7.387429-5.906286-16.365714-8.868571-26.934857-8.868571-14.592 0-26.441143 5.248-35.529143 15.725714-9.088 10.477714-13.641143 27.446857-13.641143 50.907429 0 24.905143 4.48 42.642286 13.44 53.211428 8.96 10.569143 20.589714 15.853714 34.925714 15.853715 10.569143 0 19.657143-3.364571 27.282286-10.075429 7.606857-6.710857 13.074286-17.28 16.384-31.707429l38.564571 12.233143-1.572571 5.248c-6.016 18.870857-15.323429 33.078857-27.922286 42.642286-13.750857 10.422857-31.195429 15.652571-52.333714 15.652571-26.148571 0-47.652571-8.941714-64.475429-26.806857-16.841143-17.865143-25.270857-42.294857-25.270857-73.289143 0-32.786286 8.466286-58.24 25.398857-76.379428 16.932571-18.139429 39.186286-27.209143 66.761143-27.209143z m-243.968 3.364571v77.531429h77.915429v-77.531429h39.771428v196.955429h-39.771428v-86.125714h-77.915429v86.125714h-39.771428v-196.937143h39.771428z m380.470857 0l49.846858 145.773715 48.237714-145.773715h42.185143L870.765714 937.344H828.342857l-70.4-196.937143h43.117714zM322.925714 73.142857c109.421714 0 227.547429 60.928 227.547429 160.402286 0 16.164571-4.973714 31.085714-8.704 45.988571-3.730286 13.677714-7.460571 26.112-7.460572 38.546286 0 26.112 4.973714 52.224 14.921143 77.092571l2.486857 4.973715c0 1.243429 31.085714 36.059429 64.658286 54.710857 0 0 1.243429 0 2.486857 1.243428l-0.530285-0.420571c-0.676571-0.438857-0.512 0.420571 0.530285 0.420571 3.730286 3.730286 7.460571 8.704 6.217143 14.921143-1.243429 9.947429-8.704 16.164571-18.651428 14.921143-2.486857 0-4.973714 0-6.217143-1.243428-34.816-18.651429-57.197714-42.276571-63.414857-50.980572-21.138286 38.546286-53.467429 74.605714-85.796572 94.500572-29.842286 19.894857-52.224 27.355429-70.875428 33.572571-17.408 6.217143-31.085714 11.190857-49.737143 22.381714-160.384 101.942857-213.851429 123.099429-234.989715 123.099429-7.460571 0-11.190857-3.748571-13.677714-6.217143-2.486857-2.505143-12.434286-12.434286-4.973714-29.860571 21.138286-52.205714 13.677714-108.16 6.217143-172.818286-8.704-67.145143-17.408-142.994286 1.243428-232.502857C112.804571 144.018286 199.844571 73.142857 322.925714 73.142857z m218.843429 28.598857l37.302857 2.486857c1.243429 0 123.081143 8.704 176.548571 8.704 42.276571 0 144.237714 4.973714 176.566858 43.52 8.704 11.190857 11.190857 23.625143 9.947428 38.546286-4.973714 19.894857-28.598857 27.355429-85.796571 46.006857-13.677714 4.955429-28.598857 8.704-46.006857 14.921143-13.952 4.297143-38.125714 25.270857-62.866286 47.725714l-7.826286 7.131429-3.913143 3.565714c-2.230857 2.011429-4.48 3.986286-6.729143 5.979429l-13.531428 11.958857c-27.081143 23.789714-54.326857 46.482286-79.195429 60.397714-4.992 2.486857-8.704 3.730286-13.677714 3.730286s-9.947429-2.486857-14.921143-4.973714c-22.381714-16.164571-19.894857-75.849143-13.677714-123.081143 1.243429-8.704 2.486857-14.921143 3.730286-19.894857 1.243429-6.217143 2.486857-11.190857 2.486857-17.408 0-14.921143-3.730286-29.842286-8.704-42.276572v-1.243428c-9.947429-27.355429-28.598857-54.710857-28.598857-54.710857l-21.138286-31.085715z m-73.362286 54.710857c-1.243429-9.947429-100.717714-57.197714-193.974857-38.546285-93.257143 18.651429-144.219429 95.744-142.994286 104.448 1.261714 9.947429 63.433143-46.006857 156.672-64.658286 93.257143-18.651429 182.784 7.460571 180.297143-1.243429z"
          fill="rgb(29, 86, 126)">
    </path>
</svg>