<svg viewBox="0 0 1024 1024" version="1.1" xmlns="http://www.w3.org/2000/svg" width="200" height="200">
    <path d="M36.864 914.432H20.48c-6.144 0-10.24 4.096-10.24 10.24s4.096 10.24 10.24 10.24h16.384c6.144 0 10.24-4.096 10.24-10.24s-4.096-10.24-10.24-10.24zM1003.52 914.432h-26.624c-6.144 0-10.24 4.096-10.24 10.24s4.096 10.24 10.24 10.24H1003.52c6.144 0 10.24-4.096 10.24-10.24s-5.12-10.24-10.24-10.24zM118.784 229.376c9.216 30.72 22.528 59.392 37.888 84.992 17.408 28.672 37.888 54.272 60.416 77.824 43.008 45.056 92.16 79.872 134.144 105.472 30.72-17.408 61.44-31.744 91.136-46.08-25.6-13.312-61.44-32.768-97.28-59.392h209.92c8.192-5.12 16.384-11.264 23.552-16.384 25.6-19.456 49.152-39.936 68.608-61.44H261.12c-21.504-25.6-39.936-53.248-52.224-84.992h495.616c1.024-3.072 2.048-5.12 3.072-8.192 9.216-22.528 15.36-46.08 17.408-69.632H189.44c-1.024-7.168-1.024-13.312-1.024-20.48 0-23.552-18.432-41.984-41.984-41.984s-41.984 19.456-41.984 41.984c0 7.168 0 13.312 1.024 20.48l13.312 77.824z"
          fill="#142850">
    </path>
    <path d="M990.208 504.832c0-18.432-15.36-33.792-33.792-33.792H785.408c-9.216 0-17.408 4.096-23.552 10.24-6.144 6.144-10.24 14.336-10.24 23.552 0 17.408 13.312 31.744 30.72 33.792v308.224c0 27.648 12.288 51.2 31.744 67.584h-28.672c-15.36-18.432-23.552-41.984-23.552-67.584V674.816c-8.192-12.288-18.432-24.576-27.648-34.816-47.104-54.272-102.4-94.208-150.528-122.88-31.744 17.408-62.464 31.744-92.16 46.08 1.024 0 1.024 0 2.048 1.024 30.72 15.36 74.752 39.936 117.76 74.752H358.4c-31.744 23.552-60.416 50.176-84.992 79.872h414.72c18.432 25.6 34.816 53.248 45.056 82.944H224.256c-1.024 3.072-2.048 5.12-3.072 8.192-7.168 22.528-11.264 46.08-12.288 69.632h536.576v5.12c0 13.312 6.144 24.576 15.36 31.744H174.08c9.216-8.192 15.36-19.456 15.36-31.744v-3.072c0-27.648 5.12-53.248 13.312-77.824C240.64 690.176 358.4 602.112 467.968 552.96h1.024c3.072 0 43.008-15.36 96.256-46.08 133.12-79.872 254.976-198.656 264.192-355.328 1.024-7.168 1.024-13.312 1.024-20.48 0-23.552-19.456-41.984-41.984-41.984-23.552 0-41.984 19.456-41.984 41.984 0 7.168 0 13.312-1.024 20.48-11.264 142.336-146.432 252.928-277.504 311.296-3.072 0-43.008 15.36-96.256 46.08-114.688 65.536-224.256 164.864-256 292.864-6.144 24.576-10.24 50.176-10.24 77.824v3.072c0 13.312 6.144 24.576 15.36 31.744h-40.96c-6.144 0-10.24 4.096-10.24 10.24s4.096 10.24 10.24 10.24H935.936c6.144 0 10.24-4.096 10.24-10.24s-4.096-10.24-10.24-10.24h-9.216c19.456-16.384 31.744-40.96 31.744-67.584V538.624c8.192-1.024 15.36-4.096 20.48-9.216 7.168-7.168 11.264-15.36 11.264-24.576zM848.896 655.36c2.048-7.168 9.216-12.288 16.384-10.24 7.168 2.048 12.288 9.216 10.24 16.384-2.048 7.168-9.216 12.288-16.384 10.24-8.192-1.024-12.288-8.192-10.24-16.384z m51.2 76.8c-10.24 0-19.456-8.192-19.456-19.456 0-10.24 8.192-19.456 19.456-19.456 10.24 0 19.456 8.192 19.456 19.456 0 11.264-9.216 19.456-19.456 19.456z m13.312 66.56c-2.048 7.168-9.216 12.288-16.384 10.24s-12.288-9.216-10.24-16.384c2.048-7.168 9.216-12.288 16.384-10.24 7.168 2.048 12.288 9.216 10.24 16.384z m25.6-205.824H802.816v-54.272h135.168v54.272z"
          fill="#142850">
    </path>
</svg>