<svg viewBox="0 0 1024 1024" version="1.1" xmlns="http://www.w3.org/2000/svg" width="200" height="200">
    <path d="M431.189333 914.346667c3.157333-26.133333 6.293333-50.432 9.173334-75.242667 0-9.152 2.133333-18.026667 2.645333-26.133333a33.685333 33.685333 0 0 0-21.290667-34.752c-12.608-6.250667-26.282667-12.010667-37.845333-19.584a37.226667 37.226667 0 0 0-43.093333-2.624 39.36 39.36 0 0 0-17.877334 43.114666 44.565333 44.565333 0 0 1-18.666666 45.205334 46.72 46.72 0 0 1-58.901334-0.213334 46.058667 46.058667 0 0 1-11.477333-57.429333 46.634667 46.634667 0 0 1 54.357333-22.570667l11.818667 3.413334c7.210667-11.989333 13.717333-24.384 19.456-37.12a29.653333 29.653333 0 0 0-4.992-30.037334c-8.96-12.8-17.877333-26.389333-26.282667-38.933333a33.728 33.728 0 0 0-36.010666-14.890667 931.84 931.84 0 0 0-60.970667 15.146667 35.349333 35.349333 0 0 0-26.282667 28.757333 44.864 44.864 0 0 1-43.093333 35.52 47.018667 47.018667 0 0 1-46.378667-32.789333A46.634667 46.634667 0 0 1 94.805333 640a47.274667 47.274667 0 0 1 56.746667 4.224l6.826667 7.829333c28.906667-20.117333 58.069333-39.189333 85.141333-60.608a43.946667 43.946667 0 0 0 10.794667-28.48V491.093333a36.053333 36.053333 0 0 0-21.546667-36.053333L167.04 422.4a36.693333 36.693333 0 0 0-40.746667 3.904 44.373333 44.373333 0 0 1-52.565333 3.136 46.677333 46.677333 0 0 1 12.608-85.162667 46.741333 46.741333 0 0 1 37.589333 6.293334c11.050667 7.338667 18.410667 19.008 20.245334 32.106666v11.221334l117.738666 9.408a33.194667 33.194667 0 0 0 30.485334-14.634667c11.562667-15.658667 22.869333-31.082667 34.688-46.229333a40.042667 40.042667 0 0 0 0-45.461334 34.133333 34.133333 0 0 0-28.373334-22.741333 46.442667 46.442667 0 0 1-43.626666-37.482667 46.186667 46.186667 0 0 1 26.581333-50.858666 46.698667 46.698667 0 0 1 55.936 13.888c14.144 17.066667 14.144 41.706667 0 58.794666l-3.157333 3.648a19.562667 19.562667 0 0 1 1.834666 3.136c23.125333 26.133333 33.130667 42.069333 76.224 18.026667a211.050667 211.050667 0 0 1 45.461334-16.981333 35.584 35.584 0 0 0 28.138666-33.706667c2.346667-26.133333 3.669333-50.944 5.504-76.544a34.709333 34.709333 0 0 0-19.434666-35.541333 44.309333 44.309333 0 0 1-21.034667-52.266667 46.72 46.72 0 0 1 44.032-34.197333 46.762667 46.762667 0 0 1 45.589333 32.128 47.744 47.744 0 0 1-29.952 59.306666c4.48 15.146667 8.938667 30.293333 13.653334 45.44 6.058667 20.650667 12.629333 41.301333 18.922666 61.930667a36.48 36.48 0 0 0 29.44 26.133333c11.050667 2.624 22.336 4.970667 33.386667 8.106667a35.349333 35.349333 0 0 0 37.418667-10.496c9.237333-10.666667 11.157333-25.770667 4.906666-38.357333a45.034667 45.034667 0 0 1 15.232-58.261334 46.442667 46.442667 0 0 1 61.226667 7.296c12.928 13.696 15.872 33.92 7.36 50.688a48.426667 48.426667 0 0 1-45.461333 26.133334h-9.728c-3.221333 8.533333-5.866667 17.237333-7.893334 26.133333a31.509333 31.509333 0 0 0 10.794667 32.917333c11.562667 10.176 23.125333 20.117333 35.2 29.781334a36.970667 36.970667 0 0 0 40.213333 4.693333c26.282667-12.010667 53.888-24.533333 81.493334-35.52a42.645333 42.645333 0 0 0 29.44-35.797333 45.226667 45.226667 0 0 1 23.701333-32.533334 45.717333 45.717333 0 0 1 40.405333-0.917333c11.584 5.12 20.565333 14.677333 24.874667 26.517333a45.994667 45.994667 0 0 1-2.005333 36.202667 44.821333 44.821333 0 0 1-25.216 23.68 45.184 45.184 0 0 1-34.709334-1.216 39.850667 39.850667 0 0 0-52.565333 9.664c-17.344 18.282667-36.266667 35.008-54.4 52.266667a34.602667 34.602667 0 0 0-8.405333 44.928c3.626667 7.829333 6.613333 15.957333 8.938666 24.298666a37.482667 37.482667 0 0 0 26.282667 26.112c13.653333 3.925333 26.282667 7.850667 41.002667 11.242667a36.693333 36.693333 0 0 0 38.357333-9.664 46.442667 46.442667 0 0 1 55.978667-11.498667 45.098667 45.098667 0 0 1 22.869333 50.432 46.677333 46.677333 0 0 1-43.477333 38.272 46.762667 46.762667 0 0 1-47.445334-33.322666c-1.066667-2.986667-1.92-6.037333-2.645333-9.130667l-81.728 8.362667c-0.256 34.133333-5.674667 68.053333-16.042667 100.586666a31.509333 31.509333 0 0 0 10.24 33.173334l61.248 57.749333a40.896 40.896 0 0 0 43.648 10.176 46.229333 46.229333 0 0 1 35.477334 3.456c10.88 5.866667 18.922667 15.808 22.336 27.626667a46.976 46.976 0 0 1-30.229334 56.704 46.250667 46.250667 0 0 1-35.797333-2.176 45.802667 45.802667 0 0 1-23.338667-27.093334 161.066667 161.066667 0 0 1-2.624-33.706666c-3.413333-1.557333-9.728-4.693333-16.042666-7.296l-78.826667-33.450667a38.784 38.784 0 0 0-47.317333 10.197333 419.84 419.84 0 0 1-38.634667 32.917334 35.413333 35.413333 0 0 0-15.786667 43.882666c1.856 6.805333 3.413333 13.866667 5.546667 20.650667a36.992 36.992 0 0 0 29.952 26.112 44.736 44.736 0 0 1 38.613333 49.642667 47.978667 47.978667 0 0 1-44.138666 42.069333 47.04 47.04 0 0 1-46.058667-31.146667 46.613333 46.613333 0 0 1 16.106667-52.970666c-12.629333-16.213333-24.448-32.405333-37.333334-47.829334a38.784 38.784 0 0 0-38.101333-10.965333 1410.773333 1410.773333 0 0 1-66.773333 8.362667 13.141333 13.141333 0 0 0-12.864 7.573333 5847.616 5847.616 0 0 1-47.573334 89.6 35.626667 35.626667 0 0 0 2.112 41.813333c12.032 16.64 11.050667 39.317333-2.368 54.869334a48.810667 48.810667 0 0 1-55.189333 12.544 45.397333 45.397333 0 0 1-26.282667-48.853334 46.634667 46.634667 0 0 1 38.890667-39.189333c4.522667-0.789333 9.088-1.322667 13.653333-1.578667M590.485333 384a44.16 44.16 0 0 0-26.282666-39.701333 84.586667 84.586667 0 0 0-109.333334 38.144 62.826667 62.826667 0 0 0 33.621334 80.981333 57.813333 57.813333 0 0 0 75.178666-5.482667A104.128 104.128 0 0 0 589.952 384M535.253333 631.125333v-2.602666c-16.085333 3.328-31.893333 7.893333-47.296 13.589333a32 32 0 0 0-21.098666 17.92c-3.925333 8.810667-3.626667 18.965333 0.853333 27.52a70.485333 70.485333 0 0 0 105.130667 19.328 44.48 44.48 0 0 0 12.373333-48.576c-6.058667-18.56-22.101333-23.253333-38.912-26.133333a110.506667 110.506667 0 0 0-13.141333 0m-113.536-109.205334c-1.493333-10.026667-3.52-19.968-6.058667-29.781333a42.730667 42.730667 0 0 0-71.488-14.634667c-21.013333 21.44-15.765333 78.378667-1.834667 95.637334 4.245333 4.565333 10.069333 7.36 16.298667 7.829333 26.282667 0 66.24-26.133333 63.594667-58.517333m241.28-18.816c-10.517333 1.834667-21.290667 2.624-31.530667 5.226666a29.44 29.44 0 1 0-19.989333 47.018667 66.986667 66.986667 0 0 0 44.928 32.938667 67.328 67.328 0 0 0 54.421333-12.288 34.432 34.432 0 0 0 0-60.608 79.210667 79.210667 0 0 0-47.829333-12.288"
          fill="#ffffff">
    </path>
</svg>