<svg viewBox="0 0 1024 1024" version="1.1" xmlns="http://www.w3.org/2000/svg" width="200" height="200">
    <path d="M950.857143 234.057143C789.942857 153.6 680.228571 219.428571 563.2 416.914286l102.4 58.514285c7.314286 7.314286 14.628571 14.628571 7.314286 21.942858v7.314285S665.6 512 658.285714 512L365.714286 621.714286c-14.628571 0-21.942857-7.314286-29.257143-14.628572L292.571429 299.885714c0-7.314286 0-14.628571 7.314285-21.942857 7.314286-7.314286 14.628571-7.314286 21.942857 0l102.4 58.514286C541.257143 138.971429 709.485714 7.314286 950.857143 212.114286v21.942857z"
          fill="#ffffff">
    </path>
    <path d="M819.2 914.285714H204.8c-73.142857 0-131.657143-58.514286-131.657143-131.657143V241.371429c0-73.142857 58.514286-131.657143 131.657143-131.657143h131.657143v65.828571H204.8c-36.571429 0-65.828571 29.257143-65.828571 65.828572v541.257142c0 36.571429 29.257143 65.828571 65.828571 65.828572h607.085714c36.571429 0 65.828571-29.257143 65.828572-65.828572V446.171429h73.142857v336.457142c0 73.142857-58.514286 131.657143-131.657143 131.657143z"
          fill="#ffffff">
    </path>
</svg>