<svg viewBox="0 0 1024 1024" version="1.1" xmlns="http://www.w3.org/2000/svg"
     width="200" height="200">
    <path d="M683.14574 609.083159l-123.926259-90.613882 123.962074-90.84617c66.958349-49.181651 119.211934-107.123739 155.310746-172.217642 36.221608-65.313912 54.587724-134.893945 54.587724-206.808116 0-8.143389-2.457957-48.597349-2.457957-48.597349l-58.089442 0.010233c0 0 2.024079 53.011848 1.242281 72.780903L183.92466 72.791136c-0.492205-16.592744 0.960875-72.791136 0.960875-72.791136l-57.984043 0c0 0-2.01794 42.785028-2.01794 50.869066 0 71.86096 18.370209 141.310011 54.601026 206.41824 36.037414 64.763379 88.28793 122.555042 155.265721 171.74488l121.214524 89.430952-121.179732 89.199687C267.595478 657.014342 215.361335 714.320963 179.533697 777.990439c-36.258446 64.438994-54.642982 133.454168-54.642982 205.130934 0 7.58467 1.943239 40.868395 1.943239 40.868395l57.992229 0.010233c0 0-1.379403-52.698719-0.330525-72.800345l648.804439 0c1.172697 19.977807 0.215915 72.790112 0.215915 72.790112l57.934925 0c0 0 1.627041-30.958796 1.627041-38.593608C893.079002 842.148026 818.53496 708.511712 683.14574 609.083159zM195.627073 888.245463c9.519722-32.564348 24.167181-62.790464 43.585245-97.381961L777.396415 790.863502c19.686168 34.635499 34.564891 64.879011 44.306669 97.381961L195.627073 888.245463zM733.646419 296.08148c-17.859585 19.494812-37.670595 39.626113-47.174968 49.182674L329.473162 345.264154c-16.117935-13.432806-32.262475-29.698096-48.792799-49.182674L733.646419 296.08148zM603.842348 409.202757l-96.320803 70.740451-96.31364-70.740451L603.842348 409.202757zM507.543034 556.130662l106.277473 77.346849-212.241818 0L507.543034 556.130662zM319.157316 696.431703l377.277969 0c11.180532 10.499017 21.742993 21.012359 31.632125 31.476584L287.910973 727.908287C297.684473 717.43076 308.119022 706.917417 319.157316 696.431703zM823.533761 136.727691c-9.249572 34.318277-23.472363 67.305246-41.209152 95.415186L234.375198 232.142878c-17.514734-28.138593-31.48784-61.121468-40.493868-95.415186L823.533761 136.727691z"
          fill="#ffffff">
    </path>
</svg>