<svg viewBox="0 0 1024 1024" version="1.1" xmlns="http://www.w3.org/2000/svg" width="200" height="200">
    <path d="M472.177778 65.706667l44.885333 36.522666a79.246222 79.246222 0 0 0-24.291555 51.598223c-1.308444 18.090667-2.673778 36.408889-4.323556 52.792888a3.299556 3.299556 0 0 0-1.479111 0.512 112.355556 112.355556 0 0 0-67.299556 42.894223l-0.341333 0.284444-0.284444 0.512a80.554667 80.554667 0 0 0-3.072 83.171556 115.939556 115.939556 0 0 0 90.680888 53.987555l-3.015111 5.688889-1.308444 2.389333a65.137778 65.137778 0 0 0-18.773333-2.673777 66.446222 66.446222 0 0 0-11.776 1.080889L458.524444 391.395556a200.647111 200.647111 0 0 0-47.388444-7.793778c-2.616889 0-5.176889 0-7.68 0.284444a74.638222 74.638222 0 0 0-58.481778 36.522667 64.113778 64.113778 0 0 0-55.125333 78.904889c0.284444 4.494222 0.796444 9.500444 1.422222 15.473778 1.080889 11.377778 2.503111 26.282667 3.584 43.975111a82.432 82.432 0 0 0-33.621333-8.988445h-2.104889a83.911111 83.911111 0 0 1-8.305778-29.582222A557.966222 557.966222 0 0 1 247.296 443.733333a88.291556 88.291556 0 0 0-44.373333-77.312 108.088889 108.088889 0 0 0-56.32-15.815111 111.502222 111.502222 0 0 0-55.182223 14.677334l-2.503111-1.024a409.6 409.6 0 0 1 10.296889-26.680889 449.422222 449.422222 0 0 1 238.364445-238.193778A438.784 438.784 0 0 1 472.177778 65.706667m462.506666 343.096889l15.701334 9.784888A447.317333 447.317333 0 0 1 960 512a460.117333 460.117333 0 0 1-4.721778 65.479111l-54.499555 48.924445a168.277333 168.277333 0 0 0-5.006223-7.395556 356.636444 356.636444 0 0 0-44.600888-51.882667 71.68 71.68 0 0 1-15.018667-18.488889 23.950222 23.950222 0 0 1-3.299556-13.312 59.221333 59.221333 0 0 1 11.377778-27.591111 263.395556 263.395556 0 0 1 57.685333-56.888889l37.603556-28.785777-5.006222-13.027556m-484.693334 276.423111a118.784 118.784 0 0 0 13.710223 7.623111 182.044444 182.044444 0 0 1 31.687111 26.112 226.531556 226.531556 0 0 0 49.208889 38.172445 73.955556 73.955556 0 0 0 38.513777 40.618666 204.117333 204.117333 0 0 0-29.582222 57.571556v-7.68l-27.420444-19.626667a506.88 506.88 0 0 1-41.187556-33.678222 183.580444 183.580444 0 0 1-41.187555-47.104 265.500444 265.500444 0 0 1 3.584-36.807111 140.629333 140.629333 0 0 0 2.616889-25.201778M512 0a512 512 0 1 0 512 512 512 512 0 0 0-512-512z m14.222222 325.176889c-38.172444 0-65.820444-20.309333-53.304889-39.822222 15.872-23.893333 72.817778-10.581333 77.880889-58.595556 2.275556-22.186667 4.323556-47.217778 5.688889-68.266667a15.303111 15.303111 0 0 1 14.392889-14.222222c37.205333-2.673778 41.016889-46.990222 6.200889-75.320889a439.296 439.296 0 0 1 109.226667 30.492445 450.161778 450.161778 0 0 1 231.992888 223.800889 32.199111 32.199111 0 0 0-17.408-5.176889c-28.444444 0-54.215111 38.4-38.001777 81.976889-133.006222 102.001778-98.872889 173.397333-55.523556 214.016a299.463111 299.463111 0 0 1 36.408889 42.723555 129.080889 129.080889 0 0 1 20.992 49.208889 12.401778 12.401778 0 0 0 13.710222 9.614222 73.386667 73.386667 0 0 0 43.121778-21.674666 449.422222 449.422222 0 0 1-235.292444 231.196444 436.679111 436.679111 0 0 1-74.979556 24.120889 25.998222 25.998222 0 0 0-5.006222-0.398222 46.705778 46.705778 0 0 0-12.003556 1.706666c15.473778-65.479111 22.755556-102.4 54.897778-130.218666a43.349333 43.349333 0 0 0-23.893333-80.782222 37.660444 37.660444 0 0 0-5.688889 0.398222 30.208 30.208 0 0 1-3.982222 0.284444c-22.186667 0-7.509333-34.872889-31.004445-36.920889-24.803556-2.104889-57.287111-51.2-93.411555-68.266666-18.887111-8.988444-37.489778-33.223111-66.901334-34.474667h-1.706666c-18.602667 0-42.382222 11.377778-54.385778 11.377778-4.778667 0-7.793778-1.820444-7.793778-6.712889 0-56.888889-5.688889-97.678222-6.826667-113.777778-0.398222-5.688889-1.991111-7.111111-1.080889-7.111111a93.866667 93.866667 0 0 0 27.818667 3.697778h0.227556c18.602667 0 9.728-38.513778 28.103111-39.822222a19.285333 19.285333 0 0 1 2.389333 0c16.384 0 47.502222 11.776 63.772445 11.776a14.506667 14.506667 0 0 0 7.907555-1.706667 1.422222 1.422222 0 0 1 0.682667 0c8.817778 0 43.406222 86.300444 62.577778 86.300444 8.021333 0 13.425778-14.677333 13.425777-55.978666 0-17.066667-8.988444-46.876444 0-63.317334a793.429333 793.429333 0 0 0 65.365334-124.928c-0.910222-2.275556-11.377778-4.380444-24.974223-4.380444a127.829333 127.829333 0 0 0-38.286222 5.688889c-9.386667 3.072 2.787556 17.692444-10.183111 20.821333a116.963556 116.963556 0 0 1-25.088 2.787556zM93.013333 430.307556a48.64 48.64 0 0 0 27.079111-7.623112 48.241778 48.241778 0 0 1 26.510223-8.078222 43.463111 43.463111 0 0 1 22.755555 6.371556 25.258667 25.258667 0 0 1 13.824 22.755555c0 81.578667 2.787556 168.675556 76.913778 169.984A105.073778 105.073778 0 0 1 319.886222 676.977778a11.377778 11.377778 0 0 0 12.174222 7.395555c11.377778 0 29.013333-7.395556 47.616-7.395555 13.880889 0 0 23.608889 0 74.524444S489.244444 880.128 489.244444 880.128a603.022222 603.022222 0 0 0 3.299556 79.644444A447.601778 447.601778 0 0 1 64 512a449.422222 449.422222 0 0 1 8.078222-85.333333 59.505778 59.505778 0 0 0 20.935111 3.640889z"
          fill="rgb(29, 86, 126)">
    </path>
</svg>