<svg viewBox="0 0 1024 1024" version="1.1" xmlns="http://www.w3.org/2000/svg" width="200" height="200">
    <path d="M870.4 777.6l-188.8-281.6c-25.6-38.4-35.2-83.2-35.2-134.4V185.6c0-38.4 25.6-64 28.8-80 3.2-16 0-16-28.8-16h-240c-28.8 0-35.2 0-32 16 3.2 16 28.8 44.8 28.8 80v176c0 48-12.8 92.8-38.4 134.4L272 640l-92.8 137.6c-9.6 16-16 38.4-16 60.8 0 54.4 32 99.2 118.4 99.2H768c89.6 0 118.4-48 118.4-99.2 3.2-22.4-3.2-44.8-16-60.8z m-54.4 83.2c-9.6 9.6-22.4 12.8-48 12.8H281.6c-25.6 0-38.4-6.4-48-12.8-6.4-3.2-9.6-12.8-9.6-22.4 0-9.6 3.2-19.2 6.4-25.6l188.8-284.8c28.8-48 48-105.6 48-163.2V150.4h121.6v211.2c0 57.6 16 115.2 44.8 166.4l192 284.8c3.2 6.4 6.4 16 6.4 25.6-3.2 9.6-12.8 19.2-16 22.4z m-38.4-54.4l-153.6-233.6h-195.2l-153.6 233.6c-3.2 3.2-3.2 9.6-3.2 16 0 12.8 12.8 25.6 25.6 25.6h460.8c12.8 0 25.6-12.8 25.6-25.6-3.2-6.4-3.2-12.8-6.4-16z m-166.4-131.2c-3.2-3.2-3.2-6.4-3.2-12.8s0-9.6 3.2-9.6c3.2-3.2 6.4-3.2 9.6-3.2s9.6 0 9.6 3.2c3.2 3.2 3.2 6.4 3.2 9.6s0 9.6-3.2 9.6c-3.2 3.2-6.4 3.2-9.6 3.2s-6.4 3.2-9.6 0z m89.6 112c-3.2 0-6.4 3.2-9.6 3.2-3.2 0-9.6-3.2-12.8-6.4l-44.8-67.2c-3.2-6.4-3.2-16 3.2-22.4 3.2 0 6.4-3.2 9.6-3.2 6.4 0 9.6 3.2 12.8 6.4l44.8 67.2c6.4 6.4 3.2 16-3.2 22.4z"
          fill-rule="evenodd" fill="rgb(20, 40, 80)">
    </path>
</svg>