<svg viewBox="0 0 1024 1024" version="1.1" xmlns="http://www.w3.org/2000/svg" width="200" height="200">
    <path d="M664.03 916.19H902.2c13.91 0 24.8-10.9 24.8-24.81v-237c0-13.91-10.9-24.8-24.8-24.8h-99.51V495.21c0-13.91-10.9-24.8-24.81-24.8H534.32v-73.54h92.54c13.91 0 24.8-10.9 24.8-24.81v-237c0-13.91-10.9-24.81-24.8-24.81H391.01c-13.91 0-24.8 10.9-24.8 24.81v237c0 13.91 10.9 24.81 24.8 24.81h94.86v73.54H248.12c-13.91 0-24.8 10.9-24.8 24.8v134.36h-99.51c-13.91 0-24.81 10.9-24.81 24.8v237c0 13.91 10.9 24.81 24.81 24.81h237c13.91 0 24.81-10.9 24.81-24.81v-237c0-13.91-10.9-24.8-24.81-24.8h-87.89V520.02h479v109.56h-87.89c-13.91 0-24.8 10.9-24.8 24.8v237c0 13.91 10.9 24.81 24.8 24.81zM336 679.18v187.39H148.6V679.18H336z m79.82-331.92v-187.4h187.4v187.4h-187.4zM690 679.18h187.4v187.39H690V679.18z"
          fill="rgb(29, 86, 126)">
    </path>
</svg>