<svg xmlns="http://www.w3.org/2000/svg" xmlns:xlink="http://www.w3.org/1999/xlink" viewBox="0 0 1024 1024" width="200"
     height="200" fill="none">
    <path d="M870.878 436.27a322.856 322.856 0 0 0-105.973-70.736 178.187 178.187 0 0 0 55.9-129.707c0-98.543-80.157-178.7-178.7-178.7s-178.631 80.157-178.631 178.7a178.187 178.187 0 0 0 55.967 129.707 322.606 322.606 0 0 0-43.725 21.97 177.653 177.653 0 0 0-97.792-29.104c-98.531 0-178.7 80.156-178.7 178.631a178.256 178.256 0 0 0 55.911 129.707A324.176 324.176 0 0 0 54.522 956.87a9.102 9.102 0 0 0 9.103 9.319h54.613a9.102 9.102 0 0 0 9.102-8.716c4.551-132.107 111.764-238.58 244.167-241.914 2.128 0.068 4.255 0.125 6.395 0.125s4.266-0.057 6.394-0.125c132.403 3.334 239.627 109.807 244.167 241.914a9.102 9.102 0 0 0 9.102 8.716h54.613a9.102 9.102 0 0 0 9.103-9.319 323.277 323.277 0 0 0-200.75-289.917 178.358 178.358 0 0 0 28.217-225.599 249.321 249.321 0 0 1 107.1-26.942c2.081 0.068 4.163 0.114 6.257 0.114s4.278 0 6.394-0.126c132.403 3.334 239.639 109.807 244.179 241.915a9.102 9.102 0 0 0 9.102 8.715h54.613a9.102 9.102 0 0 0 9.102-9.318 321.252 321.252 0 0 0-94.617-219.443z m-497.55 206.506h-1.024a105.813 105.813 0 1 1 11.093 0c-3.38-0.011-6.702-0.045-10.07 0zM536.235 235.84A105.882 105.882 0 1 1 647.6 341.572c-1.831 0-3.663-0.068-5.495-0.068s-3.8 0-5.689 0.057a106.018 106.018 0 0 1-100.181-105.722z"
            fill-rule="evenodd" fill="rgb(20, 40, 80)">
    </path>
</svg>