<svg viewBox="0 0 1024 1024" version="1.1" xmlns="http://www.w3.org/2000/svg" width="200" height="200">
<path d="M160 128a32 32 0 0 0-64 0v471.712c0 68.384 0 122.944 5.76 165.728 5.952 44.224 18.56 80.64 47.36 109.44s65.216 41.408 109.44 47.36c42.784 5.76 97.376 5.76 165.76 5.76h471.712a32 32 0 0 0 0-64H426.688c-71.296 0-121.568-0.064-159.584-5.184-37.12-4.992-57.76-14.24-72.704-29.184s-24.192-35.584-29.184-72.704c-5.12-38.048-5.184-88.288-5.184-159.584V128z m693.344 330.656a32 32 0 0 1-32-32v-256a32 32 0 0 1 64 0v256a32 32 0 0 1-32 32zM650.656 384a32 32 0 0 0 64 0V256a32 32 0 0 0-64 0v128zM512 629.344a32 32 0 0 1-32-32V384a32 32 0 0 1 64 0v213.344a32 32 0 0 1-32 32z m-170.656 128a32 32 0 0 1-32-32v-128a32 32 0 0 1 64 0v128a32 32 0 0 1-32 32z" fill="#ffffff">
</path>
</svg>